<?xml version="1.0" standalone="no"?>
<!DOCTYPE svg PUBLIC "-//W3C//DTD SVG 20010904//EN"
 "http://www.w3.org/TR/2001/REC-SVG-20010904/DTD/svg10.dtd">
<svg version="1.0" xmlns="http://www.w3.org/2000/svg"
 width="400.000000pt" height="400.000000pt" viewBox="0 0 400.000000 400.000000"
 preserveAspectRatio="xMidYMid meet">
<metadata>
Created by potrace 1.14, written by Peter Selinger 2001-2017
</metadata>
<g transform="translate(0.000000,400.000000) scale(0.100000,-0.100000)"
fill="#000000" stroke="none">
<path d="M1775 3578 c-37 -20 -67 -53 -91 -99 -20 -40 -21 -49 -10 -64 24 -33
45 -26 68 21 39 83 110 110 160 59 43 -43 46 -60 51 -387 2 -70 -1 -88 -13
-90 -8 -2 -71 -3 -140 -2 -69 1 -191 3 -272 5 l-146 2 -58 58 c-63 64 -90 72
-143 44 -28 -14 -29 -13 -60 25 l-31 39 -238 -80 c-311 -106 -298 -100 -306
-140 -3 -18 -20 -44 -36 -58 -21 -19 -44 -64 -81 -156 -28 -71 -53 -137 -54
-145 -2 -8 -17 -53 -33 -100 -32 -92 -77 -284 -111 -470 -12 -63 -23 -124 -25
-135 -12 -65 -43 -278 -51 -360 -3 -33 -8 -77 -10 -99 -39 -374 -19 -653 55
-755 67 -92 206 -108 350 -39 98 47 156 104 312 308 265 345 421 460 710 520
135 28 227 35 468 34 277 0 417 -22 588 -93 188 -78 260 -142 481 -426 160
-205 260 -306 337 -342 51 -24 72 -28 154 -28 113 0 162 20 210 87 51 70 64
132 64 318 0 148 -9 373 -19 432 -2 13 -6 54 -10 91 -3 37 -8 76 -10 85 -1 9
-6 44 -10 77 -3 32 -8 62 -10 65 -2 3 -6 34 -10 70 -7 63 -9 76 -20 130 -2 14
-7 40 -10 58 -22 139 -52 283 -85 407 -30 114 -150 427 -174 455 -8 8 -24 39
-36 68 -12 28 -23 52 -24 52 -2 0 -34 11 -72 24 -55 19 -361 116 -446 142 -12
4 -29 -7 -51 -31 l-33 -36 -43 16 c-24 8 -48 15 -54 15 -5 0 -38 -29 -72 -64
l-62 -63 -109 -3 c-60 -1 -194 -3 -299 -4 l-190 -1 -2 145 c-3 259 -13 318
-65 380 -39 46 -133 66 -183 38z m-506 -724 c35 -44 22 -93 -30 -112 -40 -15
-77 4 -88 45 -6 20 -7 41 -4 47 30 54 88 63 122 20z m1591 6 c37 -37 22 -100
-29 -118 -56 -20 -115 43 -88 95 24 46 82 58 117 23z m-215 -65 c1 -19 -1 -32
-4 -29 -3 3 -6 21 -6 39 -1 19 1 32 4 29 3 -3 6 -21 6 -39z m-1265 -153 c3
-313 4 -320 23 -339 17 -17 53 -18 587 -17 314 1 581 5 593 8 39 9 47 45 47
216 0 91 4 160 9 160 8 0 16 -222 12 -315 -2 -36 -23 -70 -53 -87 -28 -14
-1123 -21 -1175 -6 -18 5 -40 20 -49 33 -16 25 -16 20 -11 387 1 58 5 104 9
102 3 -2 7 -66 8 -142z m1848 111 c88 -56 41 -205 -65 -205 -39 0 -99 37 -107
67 -31 116 75 201 172 138z m-581 -38 c1 -19 -2 -35 -6 -35 -4 0 -8 16 -9 35
-1 19 2 35 6 35 4 0 8 -16 9 -35z m-1652 -35 c63 -31 124 -91 155 -155 20 -41
25 -65 25 -135 0 -110 -26 -171 -101 -239 -161 -147 -405 -102 -507 94 -27 52
-31 70 -31 140 0 65 4 90 26 135 40 87 101 143 188 174 67 24 181 17 245 -14z
m1992 -229 c32 -48 30 -93 -7 -135 -76 -86 -212 -27 -197 86 14 106 145 137
204 49z m518 31 c70 -52 57 -163 -24 -195 -77 -31 -154 20 -155 104 0 92 106
145 179 91z m-279 -277 c14 -9 32 -33 41 -53 42 -100 -70 -193 -165 -136 -61
35 -70 113 -22 168 41 47 95 54 146 21z m-1317 -41 c17 -37 13 -65 -11 -91
-35 -38 -99 -30 -122 16 -24 47 1 106 48 113 34 6 72 -11 85 -38z m342 -18
c21 -76 -70 -129 -128 -74 -26 24 -30 73 -9 101 37 48 122 31 137 -27z m483 0
c105 -52 168 -150 172 -271 3 -92 -22 -160 -84 -223 -67 -68 -129 -95 -222
-96 -61 0 -86 4 -131 25 -140 66 -212 217 -173 367 14 53 54 122 90 154 26 22
99 59 137 69 58 15 153 3 211 -25z m-1230 5 c25 -10 26 -14 26 -86 l0 -75 59
0 c33 0 67 -3 76 -6 26 -10 42 -54 44 -121 2 -51 -1 -65 -18 -82 -12 -12 -27
-21 -33 -22 -7 0 -35 -2 -63 -4 -27 -1 -52 -3 -55 -4 -3 0 -7 -25 -8 -53 -4
-115 -17 -128 -118 -128 -54 0 -92 12 -106 34 -4 6 -8 39 -8 74 0 72 -1 72
-87 77 -32 2 -61 4 -65 4 -13 2 -25 58 -26 117 0 88 18 108 105 114 l68 5 2
50 c3 75 10 92 40 103 39 13 135 14 167 3z m568 -238 c115 -56 80 -229 -49
-240 -60 -5 -108 22 -129 73 -47 113 68 221 178 167z"/>
<path d="M3132 2675 c-12 -25 -22 -49 -22 -53 0 -5 24 -8 54 -8 43 1 52 4 48
16 -6 17 -51 90 -55 90 -2 0 -13 -20 -25 -45z"/>
<path d="M782 2622 c-165 -46 -227 -261 -114 -392 141 -165 407 -84 435 133
10 76 -32 172 -95 221 -66 50 -139 63 -226 38z"/>
<path d="M2820 2390 c0 -79 -11 -71 98 -73 l47 -1 3 72 3 72 -76 0 -75 0 0
-70z m115 10 c3 -41 -5 -50 -46 -50 -38 0 -39 1 -39 38 0 37 0 37 42 37 37 0
42 -3 43 -25z"/>
<path d="M3402 2460 c-68 -42 -40 -149 40 -150 32 0 78 37 80 65 6 78 -58 122
-120 85z m69 -30 c27 -15 24 -56 -5 -75 -49 -33 -92 26 -54 73 13 15 33 15 59
2z"/>
<path d="M3087 2173 c-4 -4 5 -19 20 -35 l26 -28 -21 -19 c-22 -19 -30 -51
-12 -51 5 0 21 12 34 27 l26 27 20 -22 c21 -23 45 -29 54 -13 3 5 -6 17 -19
27 -30 23 -32 40 -5 56 21 14 27 38 9 38 -6 0 -22 -9 -37 -20 l-25 -20 -22 20
c-22 21 -37 25 -48 13z"/>
<path d="M2565 2103 c-119 -24 -203 -115 -206 -225 -6 -183 186 -307 346 -223
56 30 79 55 107 114 55 118 3 258 -115 314 -34 17 -99 26 -132 20z"/>
</g>
</svg>
