<?xml version="1.0" standalone="no"?>
<!DOCTYPE svg PUBLIC "-//W3C//DTD SVG 20010904//EN"
 "http://www.w3.org/TR/2001/REC-SVG-20010904/DTD/svg10.dtd">
<svg version="1.0" xmlns="http://www.w3.org/2000/svg"
 width="1280.000000pt" height="1280.000000pt" viewBox="0 0 1280.000000 1280.000000"
 preserveAspectRatio="xMidYMid meet">
<metadata>
Created by potrace 1.14, written by Peter Selinger 2001-2017
</metadata>
<g transform="translate(0.000000,1280.000000) scale(0.100000,-0.100000)"
fill="#000000" stroke="none">
<path d="M3138 10975 c-2 -2 -32 -6 -68 -10 -78 -8 -107 -12 -140 -19 -13 -3
-42 -8 -64 -12 -22 -3 -43 -7 -47 -9 -3 -2 -19 -7 -35 -9 -94 -18 -357 -103
-443 -144 -20 -9 -38 -17 -41 -17 -3 -1 -50 -23 -105 -50 -209 -102 -423 -241
-451 -292 -10 -19 -19 -40 -20 -46 -1 -7 -7 -39 -15 -72 -7 -33 -12 -64 -11
-68 1 -5 -10 -21 -25 -36 -81 -82 -193 -232 -208 -280 -3 -11 -11 -21 -16 -21
-5 0 -9 -7 -9 -15 0 -8 -6 -29 -14 -47 -8 -18 -22 -51 -31 -73 -9 -22 -20 -49
-25 -60 -7 -17 -19 -52 -25 -75 -1 -3 -7 -18 -14 -35 -7 -16 -14 -34 -15 -40
-2 -5 -7 -19 -11 -30 -40 -100 -65 -173 -65 -186 0 -9 -3 -19 -8 -23 -4 -4 -7
-11 -8 -14 0 -4 -3 -14 -7 -22 -20 -52 -69 -188 -73 -205 -8 -31 -10 -39 -18
-57 -4 -9 -9 -22 -10 -30 -2 -7 -8 -26 -14 -41 -7 -16 -12 -31 -12 -34 0 -4
-13 -43 -29 -87 -46 -126 -227 -697 -311 -981 -48 -161 -111 -375 -115 -390
-11 -49 -18 -74 -26 -95 -5 -14 -11 -35 -14 -47 -3 -13 -7 -31 -10 -40 -2 -10
-29 -110 -60 -223 -30 -113 -62 -227 -70 -254 -8 -27 -13 -51 -10 -54 3 -3 0
-11 -6 -19 -6 -7 -8 -13 -5 -13 4 0 2 -9 -4 -20 -6 -10 -12 -32 -14 -47 -7
-43 -17 -86 -22 -94 -5 -8 -22 -84 -29 -132 -3 -15 -9 -36 -15 -47 -6 -11 -10
-23 -9 -27 1 -4 0 -10 -1 -13 -1 -3 -3 -13 -5 -22 -2 -9 -13 -58 -24 -110 -12
-51 -23 -103 -26 -116 -2 -13 -6 -31 -9 -40 -3 -9 -8 -33 -11 -52 -3 -19 -8
-43 -11 -52 -5 -17 -12 -45 -20 -88 -3 -14 -18 -90 -34 -170 -16 -80 -31 -156
-34 -170 -2 -14 -7 -36 -10 -50 -3 -14 -8 -41 -11 -60 -2 -19 -7 -48 -10 -65
-13 -76 -17 -102 -22 -125 -2 -14 -6 -38 -8 -55 -3 -28 -10 -71 -21 -135 -2
-14 -6 -49 -10 -78 -3 -29 -7 -63 -10 -75 -4 -24 -11 -75 -18 -147 -6 -49 -14
-132 -21 -195 -26 -244 -26 -828 0 -1085 3 -25 7 -79 10 -120 3 -41 8 -97 10
-125 3 -27 7 -66 9 -85 6 -59 17 -154 22 -180 3 -14 7 -43 10 -65 5 -42 11
-80 14 -80 1 0 3 -13 5 -30 2 -16 7 -41 10 -55 4 -14 9 -38 11 -53 2 -16 8
-43 13 -60 5 -18 14 -50 20 -72 27 -100 47 -157 93 -254 145 -313 352 -437
708 -426 63 2 126 6 140 9 14 3 43 8 65 11 22 3 51 7 65 10 53 11 76 16 110
21 19 3 40 10 46 15 6 5 13 7 15 4 3 -2 43 7 89 21 47 14 90 26 95 27 39 11
92 31 104 41 8 6 16 10 17 9 10 -6 65 11 75 23 6 8 18 14 27 14 42 0 405 217
452 271 3 3 14 12 26 20 87 59 299 270 569 565 171 187 349 368 455 464 19 17
53 48 75 68 42 38 74 64 185 151 36 28 70 55 77 61 25 21 254 180 259 180 3 0
26 15 52 32 116 80 498 265 583 282 8 2 23 6 34 10 11 5 31 12 45 16 34 12
179 51 210 56 14 3 59 12 100 21 80 16 84 17 175 28 33 4 69 9 80 11 11 2 49
6 85 9 36 4 81 8 100 10 19 2 107 6 194 10 88 3 163 7 167 8 4 1 18 -10 31
-24 l24 -26 192 0 c150 0 196 3 212 14 11 8 18 19 15 24 -12 18 19 9 42 -12
20 -20 35 -22 140 -24 129 -2 169 6 178 36 6 19 8 18 35 -9 l28 -29 192 0 193
0 30 28 c16 16 32 27 36 25 4 -3 72 -7 151 -11 80 -3 163 -8 185 -10 22 -3 69
-7 105 -10 36 -3 76 -7 90 -9 14 -2 52 -7 85 -11 33 -4 69 -9 80 -12 11 -2 31
-6 45 -9 204 -37 446 -108 595 -173 71 -31 304 -149 332 -168 19 -13 36 -23
39 -23 4 0 26 -13 51 -30 24 -16 46 -30 48 -30 4 0 193 -131 220 -152 6 -5 42
-32 80 -61 39 -28 75 -56 81 -62 6 -5 31 -26 54 -45 24 -19 66 -56 94 -82 28
-26 63 -56 76 -68 75 -64 296 -290 470 -481 318 -348 528 -544 705 -657 28
-17 55 -35 60 -40 21 -17 222 -121 275 -142 30 -12 69 -28 85 -35 25 -12 219
-74 250 -81 6 -1 25 -5 44 -9 19 -3 38 -8 43 -11 5 -3 19 -7 31 -9 12 -1 49
-7 82 -14 33 -6 78 -13 100 -16 22 -4 51 -9 65 -12 68 -15 278 -10 365 8 182
37 340 148 425 298 8 14 17 28 20 31 8 8 71 142 76 160 2 8 13 42 25 75 11 33
22 67 24 75 2 8 10 43 19 77 16 61 35 148 41 188 2 11 8 47 14 80 5 33 13 84
16 114 3 30 8 58 10 61 2 4 7 47 10 96 4 49 8 91 10 94 2 3 6 50 10 105 4 55
9 118 11 140 18 224 25 737 11 915 -4 52 -9 124 -12 160 -2 36 -7 85 -10 110
-3 25 -8 65 -10 90 -3 25 -8 61 -11 80 -3 19 -8 53 -9 75 -2 22 -6 58 -10 80
-9 58 -15 95 -31 200 -4 28 -9 59 -11 70 -4 25 -8 46 -18 110 -4 28 -10 59
-12 70 -2 11 -6 27 -7 35 -2 16 -8 47 -31 165 -8 39 -17 86 -20 105 -3 19 -10
51 -15 70 -5 19 -11 49 -14 65 -3 17 -7 41 -10 55 -3 14 -8 34 -10 46 -2 11
-11 49 -20 85 -8 35 -18 75 -20 89 -2 14 -10 48 -16 75 -7 28 -14 59 -16 70
-3 19 -74 310 -114 465 -31 123 -69 267 -106 400 -19 69 -37 136 -40 150 -2
14 -9 36 -14 50 -9 26 -29 98 -31 115 0 6 -5 16 -11 23 -6 6 -8 12 -5 12 3 0
-15 66 -39 148 -25 81 -47 155 -49 164 -6 29 -85 290 -100 333 -12 33 -86 269
-90 285 -1 3 -12 39 -25 80 -13 41 -25 77 -25 80 -1 3 -4 12 -8 20 -3 8 -43
128 -88 265 -45 138 -86 254 -91 260 -4 5 -8 16 -8 26 0 9 -9 38 -19 65 -11
27 -51 139 -91 249 -39 110 -75 209 -81 220 -5 11 -20 52 -35 90 -42 115 -122
264 -164 305 -43 42 -75 103 -85 160 -21 125 -41 186 -69 219 -18 21 -208 151
-220 151 -3 0 -21 11 -40 23 -19 13 -88 50 -153 81 -65 31 -126 61 -136 67 -9
5 -43 19 -75 30 -31 11 -70 27 -87 34 -38 17 -257 81 -310 91 -50 10 -54 11
-57 14 -2 1 -12 3 -23 5 -23 3 -88 14 -125 21 -108 19 -444 26 -575 12 -162
-18 -191 -31 -266 -119 -35 -41 -48 -50 -97 -60 -31 -7 -63 -12 -69 -12 -7 0
-13 -4 -13 -9 0 -4 -8 -8 -19 -8 -17 0 -71 -20 -141 -53 -14 -6 -69 -36 -124
-67 -305 -171 -478 -245 -707 -305 -35 -9 -80 -21 -99 -26 -78 -21 -256 -51
-432 -74 -31 -4 -108 -11 -228 -20 -294 -23 -1147 -24 -1375 -1 -27 3 -84 8
-125 11 -174 15 -325 38 -495 75 -98 22 -99 22 -165 40 -25 7 -49 13 -55 15
-5 1 -17 5 -25 8 -8 4 -55 21 -105 38 -132 46 -296 121 -410 188 -118 70 -141
82 -213 116 -40 19 -85 38 -100 41 -15 4 -31 10 -37 14 -5 4 -33 13 -62 19
-41 10 -56 20 -77 49 -87 125 -145 142 -513 147 -106 1 -193 1 -195 0z"/>
</g>
</svg>
